<?xml version="1.0" encoding="UTF-8"?>
<svg id="Camada_1" xmlns="http://www.w3.org/2000/svg" version="1.1" viewBox="0 0 473.91 298.08">
  <!-- Generator: Adobe Illustrator 30.3.0, SVG Export Plug-In . SVG Version: 2.1.3 Build 182)  -->
  <defs>
    <style>
      .st0 {
        fill: #262626;
      }
    </style>
  </defs>
  <path class="st0" d="M317.39,172.01h-4.17c-.48,3.74-1.65,7.26-3.52,10.56s-4.19,6.1-6.97,8.4c-2.87,2.39-5.94,4.26-9.19,5.6-3.26,1.34-6.42,2.01-9.48,2.01-4.41,0-8.29-.83-11.64-2.51-3.35-1.67-6.27-4.29-8.76-7.83-5.84-8.04-8.76-21.41-8.76-39.22s2.87-30.93,8.62-39.36c4.69-6.8,10.92-10.2,18.68-10.2,7.28,0,12.21,2.16,14.8,6.47,2.59,4.31,3.88,8.96,3.88,13.94,0,1.54-.53,3.05-1.58,4.53-1.06,1.48-2.45,2.42-4.17,2.8,0,1.82.93,3.5,2.8,5.03,1.86,1.53,3.99,2.3,6.39,2.3,3.93,0,6.88-1.41,8.84-4.24,1.97-2.82,2.95-5.73,2.95-8.98s-1.17-6.8-3.52-10.63c-2.34-3.83-6.17-7.13-11.49-9.91-5.31-2.78-12.14-4.17-20.47-4.17-5.75,0-11.33,1.13-16.74,3.38-5.41,2.25-10.08,5.43-14.01,9.55-4.18,4.31-7.43,9.29-9.77,14.93v-15.22c0-1.62.48-3.11,1.44-4.45.96-1.34,2.25-2.25,3.88-2.73l6.9-2.01v-1.29h-29.45v1.29l6.75,2.01c1.63.48,2.92,1.37,3.88,2.66.96,1.29,1.44,2.75,1.44,4.38h0v63.22l-51.86-73.56h-26.58v1.29l6.46,1.58c1.73.48,3.12,1.37,4.17,2.66,1.05,1.29,1.58,2.85,1.58,4.67v79.88c0,1.63-.48,3.11-1.44,4.45-.96,1.34-2.25,2.25-3.88,2.73l-6.9,2.01v1.29h29.45v-1.29l-6.75-2.01c-1.63-.48-2.92-1.37-3.88-2.66-.96-1.29-1.44-2.75-1.44-4.38v-76.14l62.21,87.92h4.02v-27.35c2.36,5.66,5.67,10.66,9.92,14.99,4.12,4.22,8.95,7.45,14.51,9.7,5.55,2.25,11.44,3.38,17.67,3.38,4.5,0,8.81-.75,12.93-2.23,4.12-1.49,7.71-3.52,10.78-6.11,6.8-5.75,10.63-12.79,11.49-21.12h-.02Z"/>
</svg>