<?xml version="1.0" encoding="UTF-8"?>
<svg id="Camada_1" xmlns="http://www.w3.org/2000/svg" version="1.1" viewBox="0 0 177.81 230.54">
  <!-- Generator: Adobe Illustrator 30.3.0, SVG Export Plug-In . SVG Version: 2.1.3 Build 182)  -->
  <defs>
    <style>
      .st0 {
        fill: none;
      }

      .st1 {
        fill: #0cba39;
      }
    </style>
  </defs>
  <circle class="st0" cx="77.53" cy="52.66" r="15.66" transform="translate(-.8 104.14) rotate(-67.5)"/>
  <g>
    <circle class="st0" cx="77.53" cy="52.66" r="15.66" transform="translate(-.8 104.14) rotate(-67.5)"/>
    <path class="st1" d="M20.93,180.11c0,15.4,7.7,23.11,23.11,23.11h56.79c2.57,0,3.11-.19,4.58-1.65l15.2-14.08-18.77-26.58-19.01,26.92h-24.64l31.33-41.98-29.51-40h24.64l17.19,24.79,17.19-24.79h24.64l-29.51,40,21.01,28.15,20.14-18.66c1.46-1.46,1.65-2.02,1.65-4.59v-37.14c0-15.41-7.7-23.11-23.11-23.11v-.02h.35c-12.33-1.35-31.82-8.61-32.37-40.93h-.09c-1.04-12.45-11.48-22.23-24.21-22.25-12.73.01-23.17,9.8-24.21,22.25h-.09c-.45,26.44-13.57,36.11-25.08,39.49-4.3,1.26-7.29,5.15-7.29,9.63l.07,81.43ZM79.56,68.19c-10.24,1.29-18.86-7.32-17.57-17.56.88-6.98,6.51-12.61,13.49-13.49,10.24-1.29,18.86,7.32,17.57,17.56-.88,6.98-6.51,12.61-13.49,13.49Z"/>
  </g>
</svg>